<mxfile host="app.diagrams.net" modified="2023-06-07T13:53:51.144Z" agent="Mozilla/5.0 (Windows NT 10.0; Win64; x64) AppleWebKit/537.36 (KHTML, like Gecko) Chrome/112.0.0.0 Safari/537.36 OPR/98.0.0.0" etag="SXVuBSENWZPfrbbBxFFz" version="21.3.7" type="google">
  <diagram name="PÃ¡gina-1" id="RcTOPQlCxTn_fsxZ0bH9">
    <mxGraphModel grid="1" page="1" gridSize="10" guides="1" tooltips="1" connect="1" arrows="1" fold="1" pageScale="1" pageWidth="827" pageHeight="1169" math="0" shadow="0">
      <root>
        <mxCell id="0" />
        <mxCell id="1" parent="0" />
        <mxCell id="hGwIRMG6xKn5rl3ujwG9-9" style="edgeStyle=none;rounded=0;orthogonalLoop=1;jettySize=auto;html=1;entryX=0;entryY=0.5;entryDx=0;entryDy=0;" edge="1" parent="1" source="hGwIRMG6xKn5rl3ujwG9-1" target="hGwIRMG6xKn5rl3ujwG9-5">
          <mxGeometry relative="1" as="geometry" />
        </mxCell>
        <mxCell id="hGwIRMG6xKn5rl3ujwG9-18" style="edgeStyle=none;rounded=0;orthogonalLoop=1;jettySize=auto;html=1;entryX=0.054;entryY=0.864;entryDx=0;entryDy=0;entryPerimeter=0;" edge="1" parent="1" source="hGwIRMG6xKn5rl3ujwG9-1" target="hGwIRMG6xKn5rl3ujwG9-13">
          <mxGeometry relative="1" as="geometry" />
        </mxCell>
        <mxCell id="hGwIRMG6xKn5rl3ujwG9-20" style="edgeStyle=none;rounded=0;orthogonalLoop=1;jettySize=auto;html=1;entryX=0;entryY=0.5;entryDx=0;entryDy=0;" edge="1" parent="1" source="hGwIRMG6xKn5rl3ujwG9-1" target="hGwIRMG6xKn5rl3ujwG9-14">
          <mxGeometry relative="1" as="geometry" />
        </mxCell>
        <mxCell id="hGwIRMG6xKn5rl3ujwG9-22" style="edgeStyle=none;rounded=0;orthogonalLoop=1;jettySize=auto;html=1;" edge="1" parent="1" source="hGwIRMG6xKn5rl3ujwG9-1" target="hGwIRMG6xKn5rl3ujwG9-15">
          <mxGeometry relative="1" as="geometry" />
        </mxCell>
        <mxCell id="hGwIRMG6xKn5rl3ujwG9-23" style="edgeStyle=none;rounded=0;orthogonalLoop=1;jettySize=auto;html=1;" edge="1" parent="1" source="hGwIRMG6xKn5rl3ujwG9-1" target="hGwIRMG6xKn5rl3ujwG9-16">
          <mxGeometry relative="1" as="geometry" />
        </mxCell>
        <mxCell id="hGwIRMG6xKn5rl3ujwG9-36" style="edgeStyle=none;rounded=0;orthogonalLoop=1;jettySize=auto;html=1;" edge="1" parent="1" source="hGwIRMG6xKn5rl3ujwG9-1" target="hGwIRMG6xKn5rl3ujwG9-27">
          <mxGeometry relative="1" as="geometry" />
        </mxCell>
        <mxCell id="hGwIRMG6xKn5rl3ujwG9-45" style="edgeStyle=none;rounded=0;orthogonalLoop=1;jettySize=auto;html=1;" edge="1" parent="1" source="hGwIRMG6xKn5rl3ujwG9-1" target="hGwIRMG6xKn5rl3ujwG9-44">
          <mxGeometry relative="1" as="geometry" />
        </mxCell>
        <mxCell id="hGwIRMG6xKn5rl3ujwG9-47" style="edgeStyle=none;rounded=0;orthogonalLoop=1;jettySize=auto;html=1;" edge="1" parent="1" source="hGwIRMG6xKn5rl3ujwG9-1" target="hGwIRMG6xKn5rl3ujwG9-46">
          <mxGeometry relative="1" as="geometry" />
        </mxCell>
        <mxCell id="hGwIRMG6xKn5rl3ujwG9-1" value="Cliente &lt;br&gt;(Usuario registrado)" style="shape=umlActor;verticalLabelPosition=bottom;verticalAlign=top;html=1;outlineConnect=0;" vertex="1" parent="1">
          <mxGeometry x="80" y="490" width="40" height="60" as="geometry" />
        </mxCell>
        <mxCell id="hGwIRMG6xKn5rl3ujwG9-3" value="Sistema tienda online de ciclas" style="swimlane;whiteSpace=wrap;html=1;" vertex="1" parent="1">
          <mxGeometry x="227" y="210" width="600" height="810" as="geometry" />
        </mxCell>
        <mxCell id="hGwIRMG6xKn5rl3ujwG9-7" value="&amp;lt;&amp;lt;Include&amp;gt;&amp;gt;" style="rounded=0;orthogonalLoop=1;jettySize=auto;html=1;entryX=0;entryY=0;entryDx=0;entryDy=0;dashed=1;" edge="1" parent="hGwIRMG6xKn5rl3ujwG9-3" source="hGwIRMG6xKn5rl3ujwG9-5" target="hGwIRMG6xKn5rl3ujwG9-6">
          <mxGeometry relative="1" as="geometry" />
        </mxCell>
        <mxCell id="hGwIRMG6xKn5rl3ujwG9-5" value="Inicio Sesion&lt;br&gt;(loguearse)" style="ellipse;whiteSpace=wrap;html=1;" vertex="1" parent="hGwIRMG6xKn5rl3ujwG9-3">
          <mxGeometry x="90" y="70" width="110" height="50" as="geometry" />
        </mxCell>
        <mxCell id="hGwIRMG6xKn5rl3ujwG9-6" value="Validar informacion" style="ellipse;whiteSpace=wrap;html=1;" vertex="1" parent="hGwIRMG6xKn5rl3ujwG9-3">
          <mxGeometry x="310" y="80" width="100" height="50" as="geometry" />
        </mxCell>
        <mxCell id="hGwIRMG6xKn5rl3ujwG9-33" value="&amp;lt;&amp;lt;include&amp;gt;&amp;gt;" style="edgeStyle=none;rounded=0;orthogonalLoop=1;jettySize=auto;html=1;entryX=0.936;entryY=0.84;entryDx=0;entryDy=0;entryPerimeter=0;" edge="1" parent="hGwIRMG6xKn5rl3ujwG9-3" source="hGwIRMG6xKn5rl3ujwG9-12" target="hGwIRMG6xKn5rl3ujwG9-6">
          <mxGeometry relative="1" as="geometry" />
        </mxCell>
        <mxCell id="hGwIRMG6xKn5rl3ujwG9-12" value="registrar&lt;br&gt;usuario" style="ellipse;whiteSpace=wrap;html=1;" vertex="1" parent="hGwIRMG6xKn5rl3ujwG9-3">
          <mxGeometry x="470" y="130" width="110" height="50" as="geometry" />
        </mxCell>
        <mxCell id="hGwIRMG6xKn5rl3ujwG9-19" value="&amp;lt;&amp;lt;include&amp;gt;&amp;gt;" style="edgeStyle=none;rounded=0;orthogonalLoop=1;jettySize=auto;html=1;" edge="1" parent="hGwIRMG6xKn5rl3ujwG9-3" source="hGwIRMG6xKn5rl3ujwG9-13" target="hGwIRMG6xKn5rl3ujwG9-26">
          <mxGeometry relative="1" as="geometry" />
        </mxCell>
        <mxCell id="hGwIRMG6xKn5rl3ujwG9-21" value="&amp;lt;&amp;lt;extends&amp;gt;&amp;gt;" style="edgeStyle=none;rounded=0;orthogonalLoop=1;jettySize=auto;html=1;" edge="1" parent="hGwIRMG6xKn5rl3ujwG9-3" source="hGwIRMG6xKn5rl3ujwG9-13" target="hGwIRMG6xKn5rl3ujwG9-14">
          <mxGeometry relative="1" as="geometry" />
        </mxCell>
        <mxCell id="hGwIRMG6xKn5rl3ujwG9-13" value="Buscar&lt;br&gt;Productos" style="ellipse;whiteSpace=wrap;html=1;" vertex="1" parent="hGwIRMG6xKn5rl3ujwG9-3">
          <mxGeometry x="120" y="130" width="110" height="50" as="geometry" />
        </mxCell>
        <mxCell id="hGwIRMG6xKn5rl3ujwG9-14" value="Ver informacion&lt;br&gt;detalla del producto" style="ellipse;whiteSpace=wrap;html=1;" vertex="1" parent="hGwIRMG6xKn5rl3ujwG9-3">
          <mxGeometry x="200" y="230" width="110" height="50" as="geometry" />
        </mxCell>
        <mxCell id="hGwIRMG6xKn5rl3ujwG9-32" value="&amp;lt;&amp;lt;extends&amp;gt;&amp;gt;" style="edgeStyle=none;rounded=0;orthogonalLoop=1;jettySize=auto;html=1;" edge="1" parent="hGwIRMG6xKn5rl3ujwG9-3" source="hGwIRMG6xKn5rl3ujwG9-15" target="hGwIRMG6xKn5rl3ujwG9-14">
          <mxGeometry relative="1" as="geometry" />
        </mxCell>
        <mxCell id="hGwIRMG6xKn5rl3ujwG9-15" value="Agregar productos&lt;br&gt;al carrito" style="ellipse;whiteSpace=wrap;html=1;" vertex="1" parent="hGwIRMG6xKn5rl3ujwG9-3">
          <mxGeometry x="90" y="320" width="110" height="50" as="geometry" />
        </mxCell>
        <mxCell id="hGwIRMG6xKn5rl3ujwG9-34" value="&amp;lt;&amp;lt;extends&amp;gt;&amp;gt;" style="edgeStyle=none;rounded=0;orthogonalLoop=1;jettySize=auto;html=1;entryX=0.271;entryY=1.038;entryDx=0;entryDy=0;entryPerimeter=0;" edge="1" parent="hGwIRMG6xKn5rl3ujwG9-3" source="hGwIRMG6xKn5rl3ujwG9-16" target="hGwIRMG6xKn5rl3ujwG9-26">
          <mxGeometry relative="1" as="geometry" />
        </mxCell>
        <mxCell id="hGwIRMG6xKn5rl3ujwG9-16" value="Modificar carrito&lt;br&gt;de compras" style="ellipse;whiteSpace=wrap;html=1;" vertex="1" parent="hGwIRMG6xKn5rl3ujwG9-3">
          <mxGeometry x="139" y="420" width="110" height="50" as="geometry" />
        </mxCell>
        <mxCell id="hGwIRMG6xKn5rl3ujwG9-26" value="consultar&amp;nbsp;&lt;br&gt;inventario" style="ellipse;whiteSpace=wrap;html=1;" vertex="1" parent="hGwIRMG6xKn5rl3ujwG9-3">
          <mxGeometry x="380" y="200" width="100" height="50" as="geometry" />
        </mxCell>
        <mxCell id="hGwIRMG6xKn5rl3ujwG9-38" value="&amp;lt;&amp;lt;include&amp;gt;&amp;gt;" style="edgeStyle=none;rounded=0;orthogonalLoop=1;jettySize=auto;html=1;entryX=0;entryY=0.5;entryDx=0;entryDy=0;" edge="1" parent="hGwIRMG6xKn5rl3ujwG9-3" source="hGwIRMG6xKn5rl3ujwG9-27" target="hGwIRMG6xKn5rl3ujwG9-37">
          <mxGeometry relative="1" as="geometry" />
        </mxCell>
        <mxCell id="hGwIRMG6xKn5rl3ujwG9-43" value="&amp;lt;&amp;lt;extends&amp;gt;&amp;gt;" style="edgeStyle=none;rounded=0;orthogonalLoop=1;jettySize=auto;html=1;entryX=0.343;entryY=0.967;entryDx=0;entryDy=0;entryPerimeter=0;" edge="1" parent="hGwIRMG6xKn5rl3ujwG9-3" source="hGwIRMG6xKn5rl3ujwG9-27" target="hGwIRMG6xKn5rl3ujwG9-40">
          <mxGeometry relative="1" as="geometry" />
        </mxCell>
        <mxCell id="hGwIRMG6xKn5rl3ujwG9-27" value="Realizar&lt;br&gt;Pedido" style="ellipse;whiteSpace=wrap;html=1;" vertex="1" parent="hGwIRMG6xKn5rl3ujwG9-3">
          <mxGeometry x="133" y="520" width="110" height="50" as="geometry" />
        </mxCell>
        <mxCell id="hGwIRMG6xKn5rl3ujwG9-42" value="&amp;lt;&amp;lt;extends&amp;gt;&amp;gt;" style="edgeStyle=none;rounded=0;orthogonalLoop=1;jettySize=auto;html=1;entryX=1;entryY=1;entryDx=0;entryDy=0;" edge="1" parent="hGwIRMG6xKn5rl3ujwG9-3" source="hGwIRMG6xKn5rl3ujwG9-28" target="hGwIRMG6xKn5rl3ujwG9-40">
          <mxGeometry relative="1" as="geometry" />
        </mxCell>
        <mxCell id="hGwIRMG6xKn5rl3ujwG9-28" value="Administrar&amp;nbsp;&lt;br&gt;pedidos" style="ellipse;whiteSpace=wrap;html=1;" vertex="1" parent="hGwIRMG6xKn5rl3ujwG9-3">
          <mxGeometry x="453" y="530" width="110" height="50" as="geometry" />
        </mxCell>
        <mxCell id="hGwIRMG6xKn5rl3ujwG9-31" value="&amp;lt;&amp;lt;include&amp;gt;&amp;gt;" style="edgeStyle=none;rounded=0;orthogonalLoop=1;jettySize=auto;html=1;entryX=0.665;entryY=0.979;entryDx=0;entryDy=0;entryPerimeter=0;" edge="1" parent="hGwIRMG6xKn5rl3ujwG9-3" source="hGwIRMG6xKn5rl3ujwG9-29" target="hGwIRMG6xKn5rl3ujwG9-26">
          <mxGeometry relative="1" as="geometry">
            <Array as="points" />
          </mxGeometry>
        </mxCell>
        <mxCell id="hGwIRMG6xKn5rl3ujwG9-29" value="Gestionar&amp;nbsp;&lt;br&gt;inventario" style="ellipse;whiteSpace=wrap;html=1;" vertex="1" parent="hGwIRMG6xKn5rl3ujwG9-3">
          <mxGeometry x="460" y="386" width="110" height="50" as="geometry" />
        </mxCell>
        <mxCell id="hGwIRMG6xKn5rl3ujwG9-37" value="proceso&amp;nbsp;&lt;br&gt;de pago" style="ellipse;whiteSpace=wrap;html=1;" vertex="1" parent="hGwIRMG6xKn5rl3ujwG9-3">
          <mxGeometry x="300" y="580" width="110" height="50" as="geometry" />
        </mxCell>
        <mxCell id="hGwIRMG6xKn5rl3ujwG9-40" value="ver&amp;nbsp;&lt;br&gt;informacion&amp;nbsp;&lt;br&gt;detallada pedido" style="ellipse;whiteSpace=wrap;html=1;" vertex="1" parent="hGwIRMG6xKn5rl3ujwG9-3">
          <mxGeometry x="320" y="450" width="110" height="50" as="geometry" />
        </mxCell>
        <mxCell id="hGwIRMG6xKn5rl3ujwG9-44" value="Crear/Gestionar&lt;br&gt;comentarios" style="ellipse;whiteSpace=wrap;html=1;" vertex="1" parent="hGwIRMG6xKn5rl3ujwG9-3">
          <mxGeometry x="120" y="620" width="110" height="50" as="geometry" />
        </mxCell>
        <mxCell id="hGwIRMG6xKn5rl3ujwG9-46" value="Gestionar&amp;nbsp;&lt;br&gt;Cuenta" style="ellipse;whiteSpace=wrap;html=1;" vertex="1" parent="hGwIRMG6xKn5rl3ujwG9-3">
          <mxGeometry x="63" y="710" width="110" height="50" as="geometry" />
        </mxCell>
        <mxCell id="hGwIRMG6xKn5rl3ujwG9-25" style="edgeStyle=none;rounded=0;orthogonalLoop=1;jettySize=auto;html=1;" edge="1" parent="1" source="hGwIRMG6xKn5rl3ujwG9-24" target="hGwIRMG6xKn5rl3ujwG9-12">
          <mxGeometry relative="1" as="geometry">
            <mxPoint x="780" y="380" as="targetPoint" />
          </mxGeometry>
        </mxCell>
        <mxCell id="hGwIRMG6xKn5rl3ujwG9-30" style="edgeStyle=none;rounded=0;orthogonalLoop=1;jettySize=auto;html=1;entryX=1;entryY=0;entryDx=0;entryDy=0;" edge="1" parent="1" source="hGwIRMG6xKn5rl3ujwG9-24" target="hGwIRMG6xKn5rl3ujwG9-29">
          <mxGeometry relative="1" as="geometry" />
        </mxCell>
        <mxCell id="hGwIRMG6xKn5rl3ujwG9-41" style="edgeStyle=none;rounded=0;orthogonalLoop=1;jettySize=auto;html=1;entryX=1;entryY=0.5;entryDx=0;entryDy=0;" edge="1" parent="1" source="hGwIRMG6xKn5rl3ujwG9-24" target="hGwIRMG6xKn5rl3ujwG9-28">
          <mxGeometry relative="1" as="geometry" />
        </mxCell>
        <mxCell id="hGwIRMG6xKn5rl3ujwG9-24" value="Administrador" style="shape=umlActor;verticalLabelPosition=bottom;verticalAlign=top;html=1;outlineConnect=0;" vertex="1" parent="1">
          <mxGeometry x="920" y="550" width="40" height="60" as="geometry" />
        </mxCell>
      </root>
    </mxGraphModel>
  </diagram>
</mxfile>
